<?xml version="1.0" encoding="UTF-8"?>
<!DOCTYPE svg PUBLIC "-//W3C//DTD SVG 1.1//EN" "http://www.w3.org/Graphics/SVG/1.1/DTD/svg11.dtd">
<svg xmlns="http://www.w3.org/2000/svg" version="1.1" width="744px" height="567px" style="shape-rendering:geometricPrecision; text-rendering:geometricPrecision; image-rendering:optimizeQuality; fill-rule:evenodd; clip-rule:evenodd" xmlns:xlink="http://www.w3.org/1999/xlink">
<g><path style="opacity:0.993" fill="#ebe5e7" d="M 559.5,-0.5 C 571.167,-0.5 582.833,-0.5 594.5,-0.5C 597.725,0.236789 601.059,0.903456 604.5,1.5C 613.312,3.5274 622.312,5.19406 631.5,6.5C 635.427,6.92569 639.093,7.92569 642.5,9.5C 643.987,10.8036 645.654,11.9702 647.5,13C 653.253,14.8063 658.92,16.8063 664.5,19C 669.274,22.0539 674.274,24.5539 679.5,26.5C 681.795,27.4746 683.795,28.8079 685.5,30.5C 690.573,34.0656 695.24,38.2323 699.5,43C 700.448,43.4828 701.448,43.6495 702.5,43.5C 703.833,44.1667 704.833,45.1667 705.5,46.5C 706.08,48.7488 707.413,50.4154 709.5,51.5C 712.882,54.2148 715.882,57.2148 718.5,60.5C 719.32,62.8123 720.153,65.1457 721,67.5C 722.011,68.3366 723.178,68.67 724.5,68.5C 724.491,70.3084 724.991,71.9751 726,73.5C 727.371,76.2661 729.204,78.5994 731.5,80.5C 733.685,84.2132 735.352,88.2132 736.5,92.5C 737.109,99.9274 738.775,106.927 741.5,113.5C 742.833,126.5 742.833,139.5 741.5,152.5C 741.802,155.059 741.468,157.393 740.5,159.5C 737.323,163.782 735.49,168.782 735,174.5C 730.392,183.246 724.892,191.246 718.5,198.5C 718.027,199.906 717.027,200.573 715.5,200.5C 712.208,202.458 709.208,204.791 706.5,207.5C 706.158,208.338 705.492,208.672 704.5,208.5C 702.181,208.992 700.181,209.992 698.5,211.5C 695.759,211.707 693.426,212.707 691.5,214.5C 688.69,215.819 685.69,216.819 682.5,217.5C 680.402,216.516 678.402,216.849 676.5,218.5C 676.167,218.5 675.833,218.5 675.5,218.5C 669.477,217.776 663.311,217.11 657,216.5C 656.235,216.57 655.735,216.903 655.5,217.5C 653.142,217.747 651.142,217.081 649.5,215.5C 647.485,214.076 645.152,213.41 642.5,213.5C 639.673,212.892 637.007,211.892 634.5,210.5C 629.606,206.113 624.272,202.28 618.5,199C 615.601,196.271 612.934,193.438 610.5,190.5C 606.874,184.966 604.207,178.966 602.5,172.5C 603.019,163.23 604.019,153.897 605.5,144.5C 605.935,141.843 606.935,139.509 608.5,137.5C 611.593,133.653 613.926,129.32 615.5,124.5C 618.911,121.413 622.245,118.413 625.5,115.5C 629.514,115.334 633.514,115.501 637.5,116C 639.588,117.3 640.921,119.133 641.5,121.5C 641.5,121.833 641.5,122.167 641.5,122.5C 638.236,124.094 635.569,126.427 633.5,129.5C 632.167,131.5 630.5,133.167 628.5,134.5C 625.214,136.978 623.214,140.311 622.5,144.5C 621.504,144.414 620.671,144.748 620,145.5C 616.716,155.177 616.716,164.844 620,174.5C 620.894,176.767 622.394,178.434 624.5,179.5C 627.516,182.52 630.183,185.854 632.5,189.5C 635.206,192.521 638.539,194.521 642.5,195.5C 644.153,195.66 645.486,196.326 646.5,197.5C 647.091,198.151 647.757,198.818 648.5,199.5C 660.61,202.907 672.944,203.407 685.5,201C 686.381,200.292 687.047,199.458 687.5,198.5C 691.527,196.487 695.527,194.487 699.5,192.5C 706.741,189.595 712.074,184.595 715.5,177.5C 718.369,172.427 720.702,167.093 722.5,161.5C 723.117,161.389 723.617,161.056 724,160.5C 726.448,146.941 727.115,133.274 726,119.5C 725.041,115.66 723.875,111.993 722.5,108.5C 720.768,104.303 719.435,99.9693 718.5,95.5C 714.782,85.3545 709.116,76.6879 701.5,69.5C 698.473,67.1395 695.806,64.4729 693.5,61.5C 691.544,57.5439 688.544,54.5439 684.5,52.5C 682.596,52.2624 681.262,51.2624 680.5,49.5C 678.704,47.1 676.37,45.4333 673.5,44.5C 671.223,43.5514 669.223,42.2181 667.5,40.5C 659.845,33.5892 650.845,28.9226 640.5,26.5C 630.647,23.5367 620.647,21.2034 610.5,19.5C 609.737,18.7321 608.737,18.2321 607.5,18C 596.833,17.3333 586.167,17.3333 575.5,18C 573.942,18.21 572.609,18.71 571.5,19.5C 569.621,20.3414 567.621,20.6747 565.5,20.5C 561.256,19.9459 557.59,20.9459 554.5,23.5C 551.351,23.4152 548.684,24.4152 546.5,26.5C 538.202,29.3115 530.868,33.6448 524.5,39.5C 522.251,40.0798 520.585,41.4131 519.5,43.5C 517.249,46.2948 514.582,48.6281 511.5,50.5C 504.5,54.1667 499.167,59.5 495.5,66.5C 490.913,72.0253 486.579,77.6919 482.5,83.5C 480.983,83.5106 479.816,84.1772 479,85.5C 475.224,91.391 471.724,97.391 468.5,103.5C 468.34,105.153 467.674,106.486 466.5,107.5C 464.229,109.612 462.896,112.279 462.5,115.5C 461.624,115.369 460.957,115.702 460.5,116.5C 456.808,124.514 453.141,132.514 449.5,140.5C 449.863,141.183 450.196,141.85 450.5,142.5C 449.542,142.953 448.708,143.619 448,144.5C 446.53,149.243 444.864,153.909 443,158.5C 442.36,160.265 442.527,161.932 443.5,163.5C 440.669,166.088 439.335,169.421 439.5,173.5C 438.076,175.515 437.41,177.848 437.5,180.5C 436.799,187.301 435.466,193.968 433.5,200.5C 431.589,205.317 430.089,210.317 429,215.5C 425.154,237.84 423.654,260.34 424.5,283C 424.488,299.851 424.988,316.684 426,333.5C 428.097,345.008 429.763,356.675 431,368.5C 431.645,373.431 432.811,378.097 434.5,382.5C 436.815,391.761 438.815,401.095 440.5,410.5C 441.343,413.859 442.677,416.859 444.5,419.5C 444.5,419.833 444.5,420.167 444.5,420.5C 443.957,420.56 443.624,420.893 443.5,421.5C 446.643,433.296 451.309,444.296 457.5,454.5C 460.684,460.704 463.684,467.038 466.5,473.5C 470.02,481.882 475.02,489.215 481.5,495.5C 489.633,506.636 499.633,515.636 511.5,522.5C 513.027,522.427 514.027,523.094 514.5,524.5C 515.716,526.451 517.382,527.951 519.5,529C 527.181,533.343 535.181,536.843 543.5,539.5C 546.257,540.512 548.924,541.512 551.5,542.5C 553.838,544.04 556.505,544.706 559.5,544.5C 561.886,545.92 564.553,546.92 567.5,547.5C 585.389,550.384 603.055,550.051 620.5,546.5C 620.833,546.5 621.167,546.5 621.5,546.5C 626.831,546.579 631.831,545.579 636.5,543.5C 640.745,542.198 645.078,540.865 649.5,539.5C 656.812,537.343 663.812,534.509 670.5,531C 673.542,528.376 676.875,526.209 680.5,524.5C 681.425,523.643 682.092,522.643 682.5,521.5C 685.079,518.865 688.079,516.699 691.5,515C 694.335,510.999 697.668,507.499 701.5,504.5C 707.45,499.868 711.45,493.868 713.5,486.5C 714.167,486.5 714.833,486.5 715.5,486.5C 719.884,486.174 724.217,486.508 728.5,487.5C 725.549,493.068 722.882,498.734 720.5,504.5C 720.5,504.833 720.5,505.167 720.5,505.5C 718.167,505.833 716.833,507.167 716.5,509.5C 716.167,510.5 715.5,511.167 714.5,511.5C 710.797,515.202 707.463,519.202 704.5,523.5C 703.833,524.833 702.833,525.833 701.5,526.5C 699.251,527.08 697.585,528.413 696.5,530.5C 696.167,531.5 695.5,532.167 694.5,532.5C 694.565,532.062 694.399,531.728 694,531.5C 692.27,533.402 690.437,535.069 688.5,536.5C 687.564,537.974 686.23,538.974 684.5,539.5C 676.683,544.158 668.516,548.158 660,551.5C 658.69,552.13 657.856,553.13 657.5,554.5C 655.703,555.73 653.703,556.396 651.5,556.5C 646.223,556.041 641.556,557.374 637.5,560.5C 633.705,561.617 629.705,562.283 625.5,562.5C 608.549,564.242 591.549,565.242 574.5,565.5C 573.833,565.5 573.167,565.5 572.5,565.5C 566.395,564.004 560.062,563.337 553.5,563.5C 553.167,563.5 552.833,563.5 552.5,563.5C 549.091,562.097 545.425,561.43 541.5,561.5C 525.841,559.391 510.841,555.057 496.5,548.5C 495.426,547.115 494.093,545.949 492.5,545C 487.7,543.431 483.034,541.597 478.5,539.5C 475.489,538.331 472.822,536.664 470.5,534.5C 466.288,531.361 461.955,528.194 457.5,525C 456.207,524.51 454.873,524.343 453.5,524.5C 452.008,521.677 449.674,520.01 446.5,519.5C 445.833,519.167 445.167,518.833 444.5,518.5C 444.611,517.883 444.944,517.383 445.5,517C 433.669,507.335 422.669,496.835 412.5,485.5C 405.236,475.293 398.236,464.96 391.5,454.5C 389.75,453.341 388.75,451.674 388.5,449.5C 384.561,439.951 379.895,430.951 374.5,422.5C 374.448,419.654 373.448,417.32 371.5,415.5C 371.804,414.85 372.137,414.183 372.5,413.5C 367.224,401.659 362.557,389.659 358.5,377.5C 356.077,373.96 354.744,369.96 354.5,365.5C 355.124,365.083 355.457,364.416 355.5,363.5C 351.878,345.731 348.544,328.064 345.5,310.5C 344.506,301.014 344.173,291.348 344.5,281.5C 345.485,277.366 345.818,273.032 345.5,268.5C 307.833,268.5 270.167,268.5 232.5,268.5C 231.667,317.332 231.167,366.332 231,415.5C 230.907,429.846 228.74,443.846 224.5,457.5C 224.624,458.107 224.957,458.44 225.5,458.5C 225.5,458.833 225.5,459.167 225.5,459.5C 224.25,459.577 223.417,460.244 223,461.5C 221.056,467.165 219.222,472.832 217.5,478.5C 217.008,480.819 216.008,482.819 214.5,484.5C 208.154,494.481 200.82,503.815 192.5,512.5C 186.097,517.915 179.764,523.249 173.5,528.5C 171.067,528.273 169.401,529.273 168.5,531.5C 162.372,535.221 155.705,537.888 148.5,539.5C 146.146,539.838 143.813,540.338 141.5,541C 142.056,541.383 142.389,541.883 142.5,542.5C 142.167,542.5 141.833,542.5 141.5,542.5C 140.584,542.018 139.584,541.685 138.5,541.5C 114.673,545.96 91.0061,545.293 67.5,539.5C 65.4471,539.598 63.7804,538.931 62.5,537.5C 54.2646,533.377 46.2646,528.711 38.5,523.5C 37.8333,523.5 37.5,523.167 37.5,522.5C 34.3739,518.53 31.0406,514.863 27.5,511.5C 25.6033,508.053 23.4367,504.72 21,501.5C 19.6927,499.808 18.1927,498.475 16.5,497.5C 16.5,497.167 16.5,496.833 16.5,496.5C 13.5384,489.26 10.2051,482.26 6.5,475.5C 4.76786,471.303 3.43453,466.969 2.5,462.5C 0.97423,448.883 0.307564,435.216 0.5,421.5C 0.772007,413.425 2.43867,405.758 5.5,398.5C 8.31162,393.415 11.3116,388.415 14.5,383.5C 15.1667,382.5 15.8333,381.5 16.5,380.5C 20.564,378.978 23.564,376.311 25.5,372.5C 25.8333,372.5 26.1667,372.5 26.5,372.5C 29.2221,371.955 31.8887,370.455 34.5,368C 38.9759,365.76 43.6426,364.094 48.5,363C 57.1797,362.464 65.8463,362.63 74.5,363.5C 75.1667,363.5 75.8333,363.5 76.5,363.5C 76.4142,364.496 76.7476,365.329 77.5,366C 81.9504,367.523 85.9504,369.689 89.5,372.5C 90.8446,374.697 92.0112,377.03 93,379.5C 93.4986,383.152 93.6653,386.818 93.5,390.5C 92.8658,391.947 91.6991,392.613 90,392.5C 87.6013,392.387 85.7679,391.387 84.5,389.5C 82.8333,383.167 78.8333,379.167 72.5,377.5C 71.7375,376.732 70.7375,376.232 69.5,376C 62.3209,375.179 55.3209,375.345 48.5,376.5C 47.4324,377.434 46.099,377.768 44.5,377.5C 36.9862,380.022 31.3195,384.688 27.5,391.5C 25.5133,395.473 23.5133,399.473 21.5,403.5C 18.3867,407.522 17.0534,412.189 17.5,417.5C 17.5,418.167 17.5,418.833 17.5,419.5C 16.7321,420.263 16.2321,421.263 16,422.5C 15.5014,426.152 15.3347,429.818 15.5,433.5C 14.3448,440.655 14.1782,447.988 15,455.5C 15.8518,456.571 16.6851,457.571 17.5,458.5C 19.5943,466.026 22.2609,473.359 25.5,480.5C 31.0989,492.333 39.0989,502.333 49.5,510.5C 50.5,510.833 51.1667,511.5 51.5,512.5C 58.0351,518.607 65.7017,522.94 74.5,525.5C 74.8333,525.5 75.1667,525.5 75.5,525.5C 77.2214,527.694 79.5547,528.861 82.5,529C 89.8333,529.667 97.1667,529.667 104.5,529C 107.881,528.085 110.881,526.585 113.5,524.5C 117.492,522.17 121.492,519.837 125.5,517.5C 132.374,513.098 137.374,507.098 140.5,499.5C 144.625,490.792 147.958,481.792 150.5,472.5C 153.577,467.033 154.911,461.033 154.5,454.5C 155.327,449.349 155.827,444.016 156,438.5C 156.833,299.999 156.666,161.666 155.5,23.5C 131.328,23.1691 107.328,23.5024 83.5,24.5C 79.6403,25.8042 75.6403,26.4709 71.5,26.5C 64.4441,27.4315 57.7774,29.5981 51.5,33C 42.4353,39.5886 35.2686,47.7553 30,57.5C 28.2079,62.0004 27.3746,66.6671 27.5,71.5C 26.3592,74.6399 26.1925,77.9733 27,81.5C 27.1558,84.1909 27.9891,86.5242 29.5,88.5C 29.5,88.8333 29.5,89.1667 29.5,89.5C 28.9033,89.7352 28.5699,90.2352 28.5,91C 29.6983,98.5189 33.0316,104.686 38.5,109.5C 40.8605,112.527 43.5271,115.194 46.5,117.5C 46.9371,119.074 47.9371,120.241 49.5,121C 61.5029,125.622 73.5029,125.622 85.5,121C 87.0557,120.28 88.0557,119.113 88.5,117.5C 92.4023,115.107 95.9023,112.107 99,108.5C 102.853,102.776 106.687,97.1092 110.5,91.5C 112.042,90.6993 113.708,90.366 115.5,90.5C 118.957,96.1807 119.457,102.181 117,108.5C 115.396,112.048 113.563,115.382 111.5,118.5C 103.222,128.141 92.8886,134.475 80.5,137.5C 80.0831,136.876 79.4164,136.543 78.5,136.5C 69.7676,138.003 61.1009,139.003 52.5,139.5C 52.1667,139.5 51.8333,139.5 51.5,139.5C 47.9236,137.078 43.9236,135.411 39.5,134.5C 34.2814,131.954 29.9481,128.287 26.5,123.5C 24.5551,119.264 21.8884,115.597 18.5,112.5C 18.1894,107.556 16.5227,103.223 13.5,99.5C 13.5,99.1667 13.5,98.8333 13.5,98.5C 12.0523,88.2232 11.3856,77.8899 11.5,67.5C 12.0364,63.6861 13.0364,60.0194 14.5,56.5C 18.9256,51.0502 22.5922,45.0502 25.5,38.5C 27.4719,34.8949 30.1385,31.8949 33.5,29.5C 36.5628,27.9488 39.2295,25.7821 41.5,23C 48.3289,20.0847 54.9956,16.918 61.5,13.5C 69.2103,12.0578 76.877,10.5578 84.5,9C 133.166,8.50001 181.832,8.33334 230.5,8.5C 230.5,90.1667 230.5,171.833 230.5,253.5C 269.5,253.5 308.5,253.5 347.5,253.5C 348.295,249.215 348.628,244.881 348.5,240.5C 350.989,224.39 353.989,208.39 357.5,192.5C 359.831,181.507 363.164,170.841 367.5,160.5C 370.632,157.227 372.466,153.227 373,148.5C 377.653,140.024 381.82,131.357 385.5,122.5C 387.332,118.164 389.665,114.164 392.5,110.5C 396.791,107.2 399.458,102.867 400.5,97.5C 404.845,93.153 408.845,88.4863 412.5,83.5C 417.493,77.5056 422.493,71.5056 427.5,65.5C 432.44,62.2297 436.773,58.2297 440.5,53.5C 445.5,49.5 450.5,45.5 455.5,41.5C 458.274,40.2774 460.941,38.7774 463.5,37C 465.027,34.3098 467.027,32.1432 469.5,30.5C 471.336,28.412 473.669,27.0787 476.5,26.5C 487.752,21.3055 498.752,15.9721 509.5,10.5C 514.184,8.07861 519.184,6.74528 524.5,6.5C 535.942,4.58274 547.276,2.58274 558.5,0.5C 559.167,0.5 559.5,0.166667 559.5,-0.5 Z"/></g>
<g><path style="opacity:0.427" fill="#f8f6f6" d="M 604.5,1.5 C 613.82,2.03217 622.82,3.69884 631.5,6.5C 622.312,5.19406 613.312,3.5274 604.5,1.5 Z"/></g>
<g><path style="opacity:0.759" fill="#f2eff0" d="M 558.5,0.5 C 547.276,2.58274 535.942,4.58274 524.5,6.5C 535.363,2.57706 546.697,0.577056 558.5,0.5 Z"/></g>
<g><path style="opacity:0.568" fill="#f7f5f5" d="M 232.5,8.5 C 232.5,89.8333 232.5,171.167 232.5,252.5C 231.833,171.167 231.167,89.8333 230.5,8.5C 181.832,8.33334 133.166,8.50001 84.5,9C 76.877,10.5578 69.2103,12.0578 61.5,13.5C 54.9956,16.918 48.3289,20.0847 41.5,23C 39.2295,25.7821 36.5628,27.9488 33.5,29.5C 37.4081,24.0978 42.4081,19.9311 48.5,17C 59.3716,12.3574 70.7049,9.35741 82.5,8C 109.314,6.89178 136.147,6.39178 163,6.5C 185.833,6.66667 208.667,6.83333 231.5,7C 232.056,7.38258 232.389,7.88258 232.5,8.5 Z"/></g>
<g><path style="opacity:0.166" fill="#fefefe" d="M 232.5,8.5 C 233.499,89.3316 233.833,170.332 233.5,251.5C 270.833,251.5 308.167,251.5 345.5,251.5C 345.232,249.901 345.566,248.568 346.5,247.5C 346.5,249.167 346.5,250.833 346.5,252.5C 308.5,252.5 270.5,252.5 232.5,252.5C 232.5,171.167 232.5,89.8333 232.5,8.5 Z"/></g>
<g><path style="opacity:0.22" fill="#fbfafb" d="M 610.5,19.5 C 597.493,18.2431 584.493,18.2431 571.5,19.5C 572.609,18.71 573.942,18.21 575.5,18C 586.167,17.3333 596.833,17.3333 607.5,18C 608.737,18.2321 609.737,18.7321 610.5,19.5 Z"/></g>
<g><path style="opacity:0.684" fill="#f6f4f5" d="M 565.5,20.5 C 562.093,22.0743 558.427,23.0743 554.5,23.5C 557.59,20.9459 561.256,19.9459 565.5,20.5 Z"/></g>
<g><path style="opacity:0.165" fill="#f8f7f7" d="M 642.5,9.5 C 654.268,12.9223 665.602,17.4223 676.5,23C 677.71,24.0391 678.71,25.2058 679.5,26.5C 674.274,24.5539 669.274,22.0539 664.5,19C 658.92,16.8063 653.253,14.8063 647.5,13C 645.654,11.9702 643.987,10.8036 642.5,9.5 Z"/></g>
<g><path style="opacity:0.134" fill="#fbfbfb" d="M 83.5,24.5 C 107.328,23.5024 131.328,23.1691 155.5,23.5C 155.667,160.834 155.5,298.167 155,435.5C 154.821,439.025 154.321,442.359 153.5,445.5C 153.5,305.167 153.5,164.833 153.5,24.5C 130.167,24.5 106.833,24.5 83.5,24.5 Z"/></g>
<g><path style="opacity:0.267" fill="#f7f4f5" d="M 509.5,10.5 C 498.752,15.9721 487.752,21.3055 476.5,26.5C 476.414,25.5041 476.748,24.6708 477.5,24C 487.708,18.43 498.375,13.93 509.5,10.5 Z"/></g>
<g><path style="opacity:0.761" fill="#ede8eb" d="M 155.5,23.5 C 156.666,161.666 156.833,299.999 156,438.5C 155.827,444.016 155.327,449.349 154.5,454.5C 154.806,451.615 154.473,448.948 153.5,446.5C 153.5,446.167 153.5,445.833 153.5,445.5C 154.321,442.359 154.821,439.025 155,435.5C 155.5,298.167 155.667,160.834 155.5,23.5 Z"/></g>
<g><path style="opacity:0.324" fill="#f9f8f8" d="M 554.5,23.5 C 552.11,25.0198 549.443,26.0198 546.5,26.5C 548.684,24.4152 551.351,23.4152 554.5,23.5 Z"/></g>
<g><path style="opacity:0.255" fill="#f9f7f8" d="M 71.5,26.5 C 65.1631,29.5744 58.4965,32.4078 51.5,35C 44.6253,40.2073 38.7919,46.374 34,53.5C 31.6633,59.6957 29.4966,65.6957 27.5,71.5C 27.3746,66.6671 28.2079,62.0004 30,57.5C 35.2686,47.7553 42.4353,39.5886 51.5,33C 57.7774,29.5981 64.4441,27.4315 71.5,26.5 Z"/></g>
<g><path style="opacity:0.127" fill="#fbf9f9" d="M 685.5,30.5 C 692.045,33.7145 697.711,38.0479 702.5,43.5C 701.448,43.6495 700.448,43.4828 699.5,43C 695.24,38.2323 690.573,34.0656 685.5,30.5 Z"/></g>
<g><path style="opacity:0.28" fill="#f9f8f9" d="M 546.5,26.5 C 546.631,27.3764 546.298,28.0431 545.5,28.5C 538.561,32.4675 531.561,36.1341 524.5,39.5C 530.868,33.6448 538.202,29.3115 546.5,26.5 Z"/></g>
<g><path style="opacity:0.249" fill="#f9f7f7" d="M 640.5,26.5 C 650.845,28.9226 659.845,33.5892 667.5,40.5C 658.576,35.5392 649.576,30.8726 640.5,26.5 Z"/></g>
<g><path style="opacity:0.765" fill="#f3f0f0" d="M 469.5,30.5 C 467.027,32.1432 465.027,34.3098 463.5,37C 460.941,38.7774 458.274,40.2774 455.5,41.5C 455.833,40.8333 456.167,40.1667 456.5,39.5C 460.001,35.3375 464.335,32.3375 469.5,30.5 Z"/></g>
<g><path style="opacity:0.261" fill="#f8f6f7" d="M 25.5,38.5 C 22.5922,45.0502 18.9256,51.0502 14.5,56.5C 16.1909,49.0859 19.8575,43.0859 25.5,38.5 Z"/></g>
<g><path style="opacity:0.149" fill="#faf8f9" d="M 524.5,39.5 C 523.415,41.5869 521.749,42.9202 519.5,43.5C 520.585,41.4131 522.251,40.0798 524.5,39.5 Z"/></g>
<g><path style="opacity:0.329" fill="#faf9f9" d="M 456.5,39.5 C 456.167,40.1667 455.833,40.8333 455.5,41.5C 450.5,45.5 445.5,49.5 440.5,53.5C 444.868,47.8027 450.202,43.136 456.5,39.5 Z"/></g>
<g><path style="opacity:0.161" fill="#fafafa" d="M 673.5,44.5 C 676.37,45.4333 678.704,47.1 680.5,49.5C 677.63,48.5667 675.296,46.9 673.5,44.5 Z"/></g>
<g><path style="opacity:0.29" fill="#faf9f9" d="M 705.5,46.5 C 707.587,47.5846 708.92,49.2512 709.5,51.5C 707.413,50.4154 706.08,48.7488 705.5,46.5 Z"/></g>
<g><path style="opacity:0.19" fill="#fcfbfb" d="M 684.5,52.5 C 688.544,54.5439 691.544,57.5439 693.5,61.5C 690.167,58.8333 687.167,55.8333 684.5,52.5 Z"/></g>
<g><path style="opacity:0.443" fill="#f9f7f7" d="M 511.5,50.5 C 510.164,52.0103 508.997,53.6769 508,55.5C 503.82,59.2466 499.653,62.9133 495.5,66.5C 499.167,59.5 504.5,54.1667 511.5,50.5 Z"/></g>
<g><path style="opacity:0.341" fill="#f9f8f8" d="M 440.5,53.5 C 436.773,58.2297 432.44,62.2297 427.5,65.5C 431.227,60.7703 435.56,56.7703 440.5,53.5 Z"/></g>
<g><path style="opacity:0.761" fill="#f5f3f4" d="M 718.5,60.5 C 720.984,62.8003 722.984,65.4669 724.5,68.5C 723.178,68.67 722.011,68.3366 721,67.5C 720.153,65.1457 719.32,62.8123 718.5,60.5 Z"/></g>
<g><path style="opacity:0.341" fill="#faf9f9" d="M 427.5,65.5 C 422.493,71.5056 417.493,77.5056 412.5,83.5C 415.999,76.3266 420.999,70.3266 427.5,65.5 Z"/></g>
<g><path style="opacity:0.11" fill="#faf7f8" d="M 724.5,68.5 C 727.839,71.8349 730.172,75.8349 731.5,80.5C 729.204,78.5994 727.371,76.2661 726,73.5C 724.991,71.9751 724.491,70.3084 724.5,68.5 Z"/></g>
<g><path style="opacity:0.138" fill="#fbfbfb" d="M 27.5,71.5 C 28.8875,76.9813 29.5542,82.648 29.5,88.5C 27.9891,86.5242 27.1558,84.1909 27,81.5C 26.1925,77.9733 26.3592,74.6399 27.5,71.5 Z"/></g>
<g><path style="opacity:0.121" fill="#faf9f9" d="M 701.5,69.5 C 709.116,76.6879 714.782,85.3545 718.5,95.5C 712.876,86.862 707.209,78.1953 701.5,69.5 Z"/></g>
<g><path style="opacity:0.529" fill="#f9f8f8" d="M 11.5,67.5 C 11.3856,77.8899 12.0523,88.2232 13.5,98.5C 12.3794,96.0458 11.546,93.3791 11,90.5C 10.1777,82.6554 10.3443,74.9887 11.5,67.5 Z"/></g>
<g><path style="opacity:0.071" fill="#f9f8f8" d="M 482.5,83.5 C 478.793,90.9415 474.126,97.6082 468.5,103.5C 471.724,97.391 475.224,91.391 479,85.5C 479.816,84.1772 480.983,83.5106 482.5,83.5 Z"/></g>
<g><path style="opacity:0.275" fill="#fbf9f9" d="M 412.5,83.5 C 408.845,88.4863 404.845,93.153 400.5,97.5C 402.362,93.4582 404.862,89.7916 408,86.5C 409.129,84.8588 410.629,83.8588 412.5,83.5 Z"/></g>
<g><path style="opacity:0.283" fill="#f8f7f7" d="M 110.5,91.5 C 106.687,97.1092 102.853,102.776 99,108.5C 95.9023,112.107 92.4023,115.107 88.5,117.5C 91.4625,114.036 94.6291,110.703 98,107.5C 100.538,100.807 104.705,95.4734 110.5,91.5 Z"/></g>
<g><path style="opacity:0.541" fill="#f6f4f4" d="M 400.5,97.5 C 399.458,102.867 396.791,107.2 392.5,110.5C 394.35,105.653 397.017,101.32 400.5,97.5 Z"/></g>
<g><path style="opacity:0.516" fill="#f7f4f5" d="M 115.5,90.5 C 117.411,90.5743 118.578,91.5743 119,93.5C 120.942,99.9245 120.608,106.258 118,112.5C 116.594,115.409 114.428,117.409 111.5,118.5C 113.563,115.382 115.396,112.048 117,108.5C 119.457,102.181 118.957,96.1807 115.5,90.5 Z"/></g>
<g><path style="opacity:0.255" fill="#f7f5f6" d="M 13.5,99.5 C 16.5227,103.223 18.1894,107.556 18.5,112.5C 16.0363,108.556 14.3697,104.223 13.5,99.5 Z"/></g>
<g><path style="opacity:0.688" fill="#f2eff0" d="M 736.5,92.5 C 739.24,99.1327 740.907,106.133 741.5,113.5C 738.775,106.927 737.109,99.9274 736.5,92.5 Z"/></g>
<g><path style="opacity:0.349" fill="#fafafa" d="M 29.5,89.5 C 31.9272,96.3599 34.9272,103.027 38.5,109.5C 33.0316,104.686 29.6983,98.5189 28.5,91C 28.5699,90.2352 28.9033,89.7352 29.5,89.5 Z"/></g>
<g><path style="opacity:0.133" fill="#fcfcfc" d="M 466.5,107.5 C 466.206,110.754 464.873,113.421 462.5,115.5C 462.896,112.279 464.229,109.612 466.5,107.5 Z"/></g>
<g><path style="opacity:0.596" fill="#f8f6f7" d="M 641.5,121.5 C 640.921,119.133 639.588,117.3 637.5,116C 633.514,115.501 629.514,115.334 625.5,115.5C 629.638,113.156 633.971,112.989 638.5,115C 641.647,116.443 642.647,118.609 641.5,121.5 Z"/></g>
<g><path style="opacity:0.269" fill="#f9f8f8" d="M 18.5,112.5 C 21.8884,115.597 24.5551,119.264 26.5,123.5C 24.629,123.141 23.129,122.141 22,120.5C 20.5186,117.89 19.3519,115.223 18.5,112.5 Z"/></g>
<g><path style="opacity:0.298" fill="#fbfafb" d="M 741.5,113.5 C 742.167,115.5 742.833,117.5 743.5,119.5C 743.5,128.5 743.5,137.5 743.5,146.5C 742.833,148.5 742.167,150.5 741.5,152.5C 742.833,139.5 742.833,126.5 741.5,113.5 Z"/></g>
<g><path style="opacity:0.459" fill="#f5f2f3" d="M 46.5,117.5 C 60.4431,123.963 74.4431,123.963 88.5,117.5C 88.0557,119.113 87.0557,120.28 85.5,121C 73.5029,125.622 61.5029,125.622 49.5,121C 47.9371,120.241 46.9371,119.074 46.5,117.5 Z"/></g>
<g><path style="opacity:0.337" fill="#faf9f9" d="M 625.5,115.5 C 622.245,118.413 618.911,121.413 615.5,124.5C 617.562,120.105 620.896,117.105 625.5,115.5 Z"/></g>
<g><path style="opacity:0.55" fill="#f7f6f6" d="M 722.5,108.5 C 723.875,111.993 725.041,115.66 726,119.5C 727.115,133.274 726.448,146.941 724,160.5C 723.617,161.056 723.117,161.389 722.5,161.5C 726.362,143.851 726.362,126.184 722.5,108.5 Z"/></g>
<g><path style="opacity:0.043" fill="#fbfafa" d="M 641.5,122.5 C 639.431,125.573 636.764,127.906 633.5,129.5C 635.569,126.427 638.236,124.094 641.5,122.5 Z"/></g>
<g><path style="opacity:0.565" fill="#f6f4f5" d="M 462.5,115.5 C 458.731,124.696 454.731,133.696 450.5,142.5C 450.196,141.85 449.863,141.183 449.5,140.5C 453.141,132.514 456.808,124.514 460.5,116.5C 460.957,115.702 461.624,115.369 462.5,115.5 Z"/></g>
<g><path style="opacity:0.525" fill="#f7f5f6" d="M 615.5,124.5 C 613.926,129.32 611.593,133.653 608.5,137.5C 609.551,132.393 611.885,128.059 615.5,124.5 Z"/></g>
<g><path style="opacity:0.137" fill="#fbf9fa" d="M 628.5,134.5 C 628.649,135.552 628.483,136.552 628,137.5C 626.147,139.903 624.314,142.236 622.5,144.5C 623.214,140.311 625.214,136.978 628.5,134.5 Z"/></g>
<g><path style="opacity:0.118" fill="#fcfcfc" d="M 39.5,134.5 C 43.9236,135.411 47.9236,137.078 51.5,139.5C 46.9132,138.979 42.9132,137.312 39.5,134.5 Z"/></g>
<g><path style="opacity:0.369" fill="#f9f7f7" d="M 80.5,137.5 C 78.4375,138.776 76.1042,139.61 73.5,140C 66.3209,140.821 59.3209,140.655 52.5,139.5C 61.1009,139.003 69.7676,138.003 78.5,136.5C 79.4164,136.543 80.0831,136.876 80.5,137.5 Z"/></g>
<g><path style="opacity:0.306" fill="#f6f4f5" d="M 385.5,122.5 C 381.82,131.357 377.653,140.024 373,148.5C 372.466,153.227 370.632,157.227 367.5,160.5C 370.766,150.631 374.599,140.964 379,131.5C 380.256,127.758 382.423,124.758 385.5,122.5 Z"/></g>
<g><path style="opacity:0.102" fill="#fcfbfb" d="M 605.5,144.5 C 604.019,153.897 603.019,163.23 602.5,172.5C 601.346,166.013 601.179,159.346 602,152.5C 602.322,149.334 603.489,146.667 605.5,144.5 Z"/></g>
<g><path style="opacity:0.327" fill="#f7f5f5" d="M 450.5,142.5 C 448.335,149.663 446.001,156.663 443.5,163.5C 442.527,161.932 442.36,160.265 443,158.5C 444.864,153.909 446.53,149.243 448,144.5C 448.708,143.619 449.542,142.953 450.5,142.5 Z"/></g>
<g><path style="opacity:0.749" fill="#f5f2f3" d="M 740.5,159.5 C 738.545,170.741 734.378,181.074 728,190.5C 725.234,193.777 722.067,196.443 718.5,198.5C 724.892,191.246 730.392,183.246 735,174.5C 735.49,168.782 737.323,163.782 740.5,159.5 Z"/></g>
<g><path style="opacity:0.089" fill="#fbfafa" d="M 443.5,163.5 C 443.062,167.313 441.729,170.646 439.5,173.5C 439.335,169.421 440.669,166.088 443.5,163.5 Z"/></g>
<g><path style="opacity:0.614" fill="#f4f1f2" d="M 622.5,144.5 C 617.99,156.537 618.657,168.203 624.5,179.5C 622.394,178.434 620.894,176.767 620,174.5C 616.716,164.844 616.716,155.177 620,145.5C 620.671,144.748 621.504,144.414 622.5,144.5 Z"/></g>
<g><path style="opacity:0.225" fill="#f9f8f8" d="M 439.5,173.5 C 439.59,176.152 438.924,178.485 437.5,180.5C 437.41,177.848 438.076,175.515 439.5,173.5 Z"/></g>
<g><path style="opacity:0.058" fill="#f9f8f8" d="M 715.5,177.5 C 712.074,184.595 706.741,189.595 699.5,192.5C 704.792,187.509 710.125,182.509 715.5,177.5 Z"/></g>
<g><path style="opacity:0.153" fill="#fcfbfb" d="M 632.5,189.5 C 636.129,190.982 639.462,192.982 642.5,195.5C 638.539,194.521 635.206,192.521 632.5,189.5 Z"/></g>
<g><path style="opacity:0.527" fill="#f5f3f3" d="M 646.5,197.5 C 660.074,201.916 673.741,202.249 687.5,198.5C 687.047,199.458 686.381,200.292 685.5,201C 672.944,203.407 660.61,202.907 648.5,199.5C 647.757,198.818 647.091,198.151 646.5,197.5 Z"/></g>
<g><path style="opacity:0.169" fill="#f9f7f7" d="M 715.5,200.5 C 713.363,203.973 710.363,206.306 706.5,207.5C 709.208,204.791 712.208,202.458 715.5,200.5 Z"/></g>
<g><path style="opacity:0.651" fill="#f6f4f4" d="M 610.5,190.5 C 612.934,193.438 615.601,196.271 618.5,199C 624.272,202.28 629.606,206.113 634.5,210.5C 625.815,207.005 618.315,201.671 612,194.5C 611.209,193.255 610.709,191.922 610.5,190.5 Z"/></g>
<g><path style="opacity:0.196" fill="#fbfafa" d="M 704.5,208.5 C 703.089,210.539 701.089,211.539 698.5,211.5C 700.181,209.992 702.181,208.992 704.5,208.5 Z"/></g>
<g><path style="opacity:0.386" fill="#f8f6f7" d="M 357.5,192.5 C 353.989,208.39 350.989,224.39 348.5,240.5C 347.833,241.5 347.167,242.5 346.5,243.5C 348.361,227.336 351.194,211.336 355,195.5C 355.236,193.881 356.069,192.881 357.5,192.5 Z"/></g>
<g><path style="opacity:0.239" fill="#fbfbfb" d="M 698.5,211.5 C 696.574,213.293 694.241,214.293 691.5,214.5C 693.426,212.707 695.759,211.707 698.5,211.5 Z"/></g>
<g><path style="opacity:0.265" fill="#faf9f9" d="M 642.5,213.5 C 645.152,213.41 647.485,214.076 649.5,215.5C 646.848,215.59 644.515,214.924 642.5,213.5 Z"/></g>
<g><path style="opacity:0.147" fill="#fcfcfc" d="M 675.5,218.5 C 668.776,219.804 662.109,219.471 655.5,217.5C 655.735,216.903 656.235,216.57 657,216.5C 663.311,217.11 669.477,217.776 675.5,218.5 Z"/></g>
<g><path style="opacity:0.052" fill="#fdfcfc" d="M 682.5,217.5 C 680.735,218.461 678.735,218.795 676.5,218.5C 678.402,216.849 680.402,216.516 682.5,217.5 Z"/></g>
<g><path style="opacity:0.546" fill="#f6f3f4" d="M 433.5,200.5 C 428.191,227.399 425.858,254.565 426.5,282C 426.092,315.755 428.759,349.255 434.5,382.5C 432.811,378.097 431.645,373.431 431,368.5C 429.763,356.675 428.097,345.008 426,333.5C 424.988,316.684 424.488,299.851 424.5,283C 423.654,260.34 425.154,237.84 429,215.5C 430.089,210.317 431.589,205.317 433.5,200.5 Z"/></g>
<g><path style="opacity:0.556" fill="#f0edee" d="M 230.5,8.5 C 231.167,89.8333 231.833,171.167 232.5,252.5C 270.5,252.5 308.5,252.5 346.5,252.5C 346.5,250.833 346.5,249.167 346.5,247.5C 346.5,246.167 346.5,244.833 346.5,243.5C 347.167,242.5 347.833,241.5 348.5,240.5C 348.628,244.881 348.295,249.215 347.5,253.5C 308.5,253.5 269.5,253.5 230.5,253.5C 230.5,171.833 230.5,90.1667 230.5,8.5 Z"/></g>
<g><path style="opacity:0.468" fill="#f7f5f6" d="M 232.5,268.5 C 232.5,315.167 232.5,361.833 232.5,408.5C 233.073,425.715 230.739,442.382 225.5,458.5C 224.957,458.44 224.624,458.107 224.5,457.5C 228.74,443.846 230.907,429.846 231,415.5C 231.167,366.332 231.667,317.332 232.5,268.5 Z"/></g>
<g><path style="opacity:0.221" fill="#fdfdfd" d="M 232.5,268.5 C 270.167,268.5 307.833,268.5 345.5,268.5C 345.818,273.032 345.485,277.366 344.5,281.5C 344.5,277.5 344.5,273.5 344.5,269.5C 307.5,269.5 270.5,269.5 233.5,269.5C 233.832,316.003 233.499,362.336 232.5,408.5C 232.5,361.833 232.5,315.167 232.5,268.5 Z"/></g>
<g><path style="opacity:0.486" fill="#f6f4f5" d="M 345.5,310.5 C 348.544,328.064 351.878,345.731 355.5,363.5C 355.457,364.416 355.124,365.083 354.5,365.5C 349.333,347.644 346.333,329.31 345.5,310.5 Z"/></g>
<g><path style="opacity:0.528" fill="#f4f1f2" d="M 74.5,363.5 C 65.8463,362.63 57.1797,362.464 48.5,363C 43.6426,364.094 38.9759,365.76 34.5,368C 31.8887,370.455 29.2221,371.955 26.5,372.5C 40.788,360.033 56.788,357.033 74.5,363.5 Z"/></g>
<g><path style="opacity:0.076" fill="#f8f7f7" d="M 76.5,363.5 C 80.1401,365.32 83.8068,367.153 87.5,369C 88.8228,369.816 89.4894,370.983 89.5,372.5C 85.9504,369.689 81.9504,367.523 77.5,366C 76.7476,365.329 76.4142,364.496 76.5,363.5 Z"/></g>
<g><path style="opacity:0.292" fill="#fcfbfc" d="M 48.5,376.5 C 55.3209,375.345 62.3209,375.179 69.5,376C 70.7375,376.232 71.7375,376.732 72.5,377.5C 64.5341,376.635 56.5341,376.302 48.5,376.5 Z"/></g>
<g><path style="opacity:0.333" fill="#faf9f9" d="M 25.5,372.5 C 23.564,376.311 20.564,378.978 16.5,380.5C 18.577,376.754 21.577,374.088 25.5,372.5 Z"/></g>
<g><path style="opacity:0.152" fill="#fbfafa" d="M 72.5,377.5 C 78.8333,379.167 82.8333,383.167 84.5,389.5C 82.8639,388.251 81.6972,386.584 81,384.5C 78.3722,381.79 75.5389,379.456 72.5,377.5 Z"/></g>
<g><path style="opacity:0.035" fill="#fbf9fa" d="M 44.5,377.5 C 38.8772,382.114 33.2105,386.78 27.5,391.5C 31.3195,384.688 36.9862,380.022 44.5,377.5 Z"/></g>
<g><path style="opacity:0.386" fill="#f5f2f3" d="M 89.5,372.5 C 94.9803,376.436 96.8136,381.77 95,388.5C 94.7216,389.416 94.2216,390.082 93.5,390.5C 93.6653,386.818 93.4986,383.152 93,379.5C 92.0112,377.03 90.8446,374.697 89.5,372.5 Z"/></g>
<g><path style="opacity:0.756" fill="#f4f1f2" d="M 358.5,377.5 C 362.557,389.659 367.224,401.659 372.5,413.5C 372.137,414.183 371.804,414.85 371.5,415.5C 367.871,407.798 364.704,399.798 362,391.5C 360.107,386.993 358.941,382.327 358.5,377.5 Z"/></g>
<g><path style="opacity:0.541" fill="#f7f5f6" d="M 14.5,383.5 C 11.3116,388.415 8.31162,393.415 5.5,398.5C 6.73006,392.363 9.73006,387.363 14.5,383.5 Z"/></g>
<g><path style="opacity:0.439" fill="#f7f5f6" d="M 21.5,403.5 C 20.4565,408.355 19.1231,413.022 17.5,417.5C 17.0534,412.189 18.3867,407.522 21.5,403.5 Z"/></g>
<g><path style="opacity:0.076" fill="#fbfaf9" d="M 440.5,410.5 C 442.956,412.818 444.289,415.818 444.5,419.5C 442.677,416.859 441.343,413.859 440.5,410.5 Z"/></g>
<g><path style="opacity:0.233" fill="#f9f8f8" d="M 371.5,415.5 C 373.448,417.32 374.448,419.654 374.5,422.5C 372.707,420.574 371.707,418.241 371.5,415.5 Z"/></g>
<g><path style="opacity:0.2" fill="#fcfcfc" d="M 17.5,419.5 C 16.6245,430.14 16.2912,440.806 16.5,451.5C 15.5104,445.69 15.1771,439.69 15.5,433.5C 15.3347,429.818 15.5014,426.152 16,422.5C 16.2321,421.263 16.7321,420.263 17.5,419.5 Z"/></g>
<g><path style="opacity:0.098" fill="#f7f5f6" d="M 444.5,420.5 C 448.824,431.819 453.158,443.152 457.5,454.5C 451.309,444.296 446.643,433.296 443.5,421.5C 443.624,420.893 443.957,420.56 444.5,420.5 Z"/></g>
<g><path style="opacity:0.218" fill="#faf8f9" d="M 374.5,422.5 C 379.895,430.951 384.561,439.951 388.5,449.5C 386.852,447.571 385.185,445.571 383.5,443.5C 380.206,436.584 377.206,429.584 374.5,422.5 Z"/></g>
<g><path style="opacity:0.642" fill="#f9f8f8" d="M -0.5,421.5 C -0.166667,421.5 0.166667,421.5 0.5,421.5C 0.307564,435.216 0.97423,448.883 2.5,462.5C 1.66254,457.804 0.662536,453.137 -0.5,448.5C -0.5,439.5 -0.5,430.5 -0.5,421.5 Z"/></g>
<g><path style="opacity:0.53" fill="#f2eeef" d="M 15.5,433.5 C 15.1771,439.69 15.5104,445.69 16.5,451.5C 16.9926,453.806 17.3259,456.139 17.5,458.5C 16.6851,457.571 15.8518,456.571 15,455.5C 14.1782,447.988 14.3448,440.655 15.5,433.5 Z"/></g>
<g><path style="opacity:0.437" fill="#f4f2f2" d="M 153.5,446.5 C 154.473,448.948 154.806,451.615 154.5,454.5C 154.911,461.033 153.577,467.033 150.5,472.5C 151.792,463.87 152.792,455.204 153.5,446.5 Z"/></g>
<g><path style="opacity:0.091" fill="#faf8f9" d="M 225.5,459.5 C 224.161,466.498 221.494,472.831 217.5,478.5C 219.222,472.832 221.056,467.165 223,461.5C 223.417,460.244 224.25,459.577 225.5,459.5 Z"/></g>
<g><path style="opacity:0.122" fill="#f8f7f8" d="M 391.5,454.5 C 398.236,464.96 405.236,475.293 412.5,485.5C 410.983,485.489 409.816,484.823 409,483.5C 405.667,478.833 402.333,474.167 399,469.5C 396.016,464.694 393.516,459.694 391.5,454.5 Z"/></g>
<g><path style="opacity:0.255" fill="#f8f6f7" d="M 6.5,475.5 C 10.2051,482.26 13.5384,489.26 16.5,496.5C 12.0399,490.164 8.70652,483.164 6.5,475.5 Z"/></g>
<g><path style="opacity:0.42" fill="#f8f6f7" d="M 715.5,486.5 C 719.981,485.352 724.648,485.185 729.5,486C 730.022,486.561 730.355,487.228 730.5,488C 728.278,494.297 724.944,499.797 720.5,504.5C 722.882,498.734 725.549,493.068 728.5,487.5C 724.217,486.508 719.884,486.174 715.5,486.5 Z"/></g>
<g><path style="opacity:0.325" fill="#faf9f9" d="M 466.5,473.5 C 471.992,480.478 476.992,487.812 481.5,495.5C 475.02,489.215 470.02,481.882 466.5,473.5 Z"/></g>
<g><path style="opacity:0.122" fill="#faf9fa" d="M 25.5,480.5 C 33.1133,490.783 41.1133,500.783 49.5,510.5C 39.0989,502.333 31.0989,492.333 25.5,480.5 Z"/></g>
<g><path style="opacity:0.294" fill="#faf7f8" d="M 713.5,486.5 C 711.45,493.868 707.45,499.868 701.5,504.5C 705.503,498.492 709.503,492.492 713.5,486.5 Z"/></g>
<g><path style="opacity:0.117" fill="#fbfbfb" d="M 16.5,497.5 C 18.1927,498.475 19.6927,499.808 21,501.5C 23.4367,504.72 25.6033,508.053 27.5,511.5C 23.1322,507.456 19.4655,502.789 16.5,497.5 Z"/></g>
<g><path style="opacity:0.202" fill="#f9f8f8" d="M 140.5,499.5 C 137.374,507.098 132.374,513.098 125.5,517.5C 130.055,511.011 135.055,505.011 140.5,499.5 Z"/></g>
<g><path style="opacity:0.259" fill="#f9f8f9" d="M 214.5,484.5 C 210.051,495.14 203.384,504.307 194.5,512C 193.906,512.464 193.239,512.631 192.5,512.5C 200.82,503.815 208.154,494.481 214.5,484.5 Z"/></g>
<g><path style="opacity:0.192" fill="#fafafa" d="M 481.5,495.5 C 490.929,505.269 500.929,514.269 511.5,522.5C 499.633,515.636 489.633,506.636 481.5,495.5 Z"/></g>
<g><path style="opacity:0.088" fill="#fdfcfc" d="M 720.5,505.5 C 719.598,507.341 718.264,508.674 716.5,509.5C 716.833,507.167 718.167,505.833 720.5,505.5 Z"/></g>
<g><path style="opacity:0.182" fill="#faf9f9" d="M 412.5,485.5 C 422.669,496.835 433.669,507.335 445.5,517C 444.944,517.383 444.611,517.883 444.5,518.5C 432.441,508.775 421.774,497.775 412.5,485.5 Z"/></g>
<g><path style="opacity:0.168" fill="#faf9f9" d="M 714.5,511.5 C 712.328,516.35 708.994,520.35 704.5,523.5C 707.463,519.202 710.797,515.202 714.5,511.5 Z"/></g>
<g><path style="opacity:0.329" fill="#f9f7f8" d="M 192.5,512.5 C 190.78,515.731 188.447,518.564 185.5,521C 181.612,523.772 177.612,526.272 173.5,528.5C 179.764,523.249 186.097,517.915 192.5,512.5 Z"/></g>
<g><path style="opacity:0.148" fill="#fbfbfb" d="M 27.5,511.5 C 31.0406,514.863 34.3739,518.53 37.5,522.5C 33.0355,519.936 29.7021,516.269 27.5,511.5 Z"/></g>
<g><path style="opacity:0.155" fill="#faf8f9" d="M 51.5,512.5 C 59.0397,517.102 66.7063,521.435 74.5,525.5C 65.7017,522.94 58.0351,518.607 51.5,512.5 Z"/></g>
<g><path style="opacity:0.267" fill="#f9f9f9" d="M 446.5,519.5 C 449.674,520.01 452.008,521.677 453.5,524.5C 450.63,523.567 448.296,521.9 446.5,519.5 Z"/></g>
<g><path style="opacity:0.627" fill="#f7f4f5" d="M 453.5,524.5 C 454.873,524.343 456.207,524.51 457.5,525C 461.955,528.194 466.288,531.361 470.5,534.5C 464.034,532.437 458.368,529.104 453.5,524.5 Z"/></g>
<g><path style="opacity:0.443" fill="#f5f2f3" d="M 113.5,524.5 C 110.881,526.585 107.881,528.085 104.5,529C 97.1667,529.667 89.8333,529.667 82.5,529C 79.5547,528.861 77.2214,527.694 75.5,525.5C 88.2615,528.4 100.928,528.067 113.5,524.5 Z"/></g>
<g><path style="opacity:0.116" fill="#fcfbfb" d="M 173.5,528.5 C 172.341,530.25 170.674,531.25 168.5,531.5C 169.401,529.273 171.067,528.273 173.5,528.5 Z"/></g>
<g><path style="opacity:0.131" fill="#fbfbfb" d="M 701.5,526.5 C 700.415,528.587 698.749,529.92 696.5,530.5C 697.585,528.413 699.251,527.08 701.5,526.5 Z"/></g>
<g><path style="opacity:0.133" fill="#faf8f9" d="M 38.5,523.5 C 46.2646,528.711 54.2646,533.377 62.5,537.5C 53.2376,534.884 45.2376,530.218 38.5,523.5 Z"/></g>
<g><path style="opacity:0.308" fill="#faf8f9" d="M 514.5,524.5 C 524.708,528.768 534.375,533.768 543.5,539.5C 535.181,536.843 527.181,533.343 519.5,529C 517.382,527.951 515.716,526.451 514.5,524.5 Z"/></g>
<g><path style="opacity:0.152" fill="#fbfbfb" d="M 694.5,532.5 C 693.292,535.044 691.292,536.378 688.5,536.5C 690.437,535.069 692.27,533.402 694,531.5C 694.399,531.728 694.565,532.062 694.5,532.5 Z"/></g>
<g><path style="opacity:0.463" fill="#f8f6f7" d="M 682.5,521.5 C 682.092,522.643 681.425,523.643 680.5,524.5C 676.875,526.209 673.542,528.376 670.5,531C 663.812,534.509 656.812,537.343 649.5,539.5C 649.369,538.624 649.702,537.957 650.5,537.5C 661.778,533.195 672.444,527.861 682.5,521.5 Z"/></g>
<g><path style="opacity:0.096" fill="#fbf9fa" d="M 148.5,539.5 C 147.216,541.614 145.216,542.614 142.5,542.5C 142.389,541.883 142.056,541.383 141.5,541C 143.813,540.338 146.146,539.838 148.5,539.5 Z"/></g>
<g><path style="opacity:0.111" fill="#f9f8f8" d="M 684.5,539.5 C 676.948,546.783 667.948,551.783 657.5,554.5C 657.856,553.13 658.69,552.13 660,551.5C 668.516,548.158 676.683,544.158 684.5,539.5 Z"/></g>
<g><path style="opacity:0.153" fill="#fafafa" d="M 551.5,542.5 C 554.428,542.565 557.095,543.232 559.5,544.5C 556.505,544.706 553.838,544.04 551.5,542.5 Z"/></g>
<g><path style="opacity:0.71" fill="#f7f5f5" d="M 67.5,539.5 C 91.0061,545.293 114.673,545.96 138.5,541.5C 139.584,541.685 140.584,542.018 141.5,542.5C 117.186,549.091 92.8522,548.591 68.5,541C 67.944,540.617 67.6107,540.117 67.5,539.5 Z"/></g>
<g><path style="opacity:0.475" fill="#f9f7f8" d="M 636.5,543.5 C 631.831,545.579 626.831,546.579 621.5,546.5C 626.291,545.058 631.291,544.058 636.5,543.5 Z"/></g>
<g><path style="opacity:0.227" fill="#faf9f9" d="M 478.5,539.5 C 483.034,541.597 487.7,543.431 492.5,545C 494.093,545.949 495.426,547.115 496.5,548.5C 490.083,546.255 484.083,543.255 478.5,539.5 Z"/></g>
<g><path style="opacity:0.204" fill="#f8f6f6" d="M 559.5,544.5 C 579.726,548.551 600.059,549.218 620.5,546.5C 603.055,550.051 585.389,550.384 567.5,547.5C 564.553,546.92 561.886,545.92 559.5,544.5 Z"/></g>
<g><path style="opacity:0.155" fill="#f8f6f7" d="M 651.5,556.5 C 647.103,558.405 642.437,559.739 637.5,560.5C 641.556,557.374 646.223,556.041 651.5,556.5 Z"/></g>
<g><path style="opacity:0.224" fill="#faf9fa" d="M 541.5,561.5 C 545.425,561.43 549.091,562.097 552.5,563.5C 548.542,563.749 544.876,563.082 541.5,561.5 Z"/></g>
<g><path style="opacity:0.266" fill="#fbfafa" d="M 625.5,562.5 C 615.923,564.538 606.256,565.871 596.5,566.5C 589.167,566.5 581.833,566.5 574.5,566.5C 574.5,566.167 574.5,565.833 574.5,565.5C 591.549,565.242 608.549,564.242 625.5,562.5 Z"/></g>
<g><path style="opacity:0.291" fill="#f7f5f6" d="M 553.5,563.5 C 560.062,563.337 566.395,564.004 572.5,565.5C 565.938,565.663 559.605,564.996 553.5,563.5 Z"/></g>
</svg>
