<?xml version="1.0" standalone="no"?>
<!DOCTYPE svg PUBLIC "-//W3C//DTD SVG 20010904//EN"
 "http://www.w3.org/TR/2001/REC-SVG-20010904/DTD/svg10.dtd">
<svg version="1.0" xmlns="http://www.w3.org/2000/svg"
 width="306.000000pt" height="234.000000pt" viewBox="0 0 306.000000 234.000000"
 preserveAspectRatio="xMidYMid meet">

<g transform="translate(0.000000,234.000000) scale(0.100000,-0.100000)"
fill="#000000" stroke="none">
<path d="M2254 2320 c-137 -19 -247 -66 -369 -157 -238 -178 -386 -443 -446
-800 l-12 -73 -226 0 c-124 0 -232 4 -238 8 -10 6 -13 122 -15 503 l-3 494
-325 0 -325 0 -55 -26 c-61 -29 -130 -94 -157 -148 -25 -50 -25 -183 1 -231
43 -82 99 -120 177 -120 76 0 125 18 180 68 40 36 49 50 49 78 0 19 -5 34 -11
34 -6 0 -36 -27 -67 -60 l-58 -60 -63 0 c-108 0 -162 53 -169 166 -6 83 1 106
45 155 68 75 95 83 292 87 138 3 175 1 182 -9 5 -8 9 -405 9 -884 0 -835 -1
-873 -20 -949 -23 -91 -45 -130 -100 -179 -100 -91 -247 -66 -361 62 -81 91
-94 127 -94 261 0 104 2 120 26 165 19 37 37 56 70 73 59 31 128 26 168 -12
35 -34 53 -34 49 1 -4 35 -54 70 -114 79 -62 9 -127 -17 -185 -75 -158 -156
-62 -523 163 -627 60 -28 70 -29 204 -29 l140 0 75 37 c132 65 227 190 265
345 10 43 13 144 14 396 l0 337 240 0 240 0 0 -109 c0 -60 5 -133 11 -163 40
-200 91 -342 174 -488 62 -108 208 -258 312 -319 165 -97 290 -131 489 -131
145 0 225 16 322 63 94 45 242 190 242 236 0 27 -41 7 -74 -37 -47 -61 -88
-93 -178 -141 -96 -50 -168 -64 -309 -59 -125 5 -193 24 -284 79 -149 90 -240
221 -314 452 -39 121 -58 229 -72 407 -35 446 87 849 329 1082 61 59 109 95
157 119 68 33 72 34 200 34 118 0 136 -3 193 -27 198 -83 318 -211 352 -376
14 -70 8 -153 -16 -210 -51 -123 -203 -176 -325 -114 -69 35 -99 78 -99 144 0
55 16 91 54 127 29 27 33 49 12 57 -39 15 -109 -76 -121 -157 -21 -142 94
-252 265 -252 90 0 139 21 210 92 131 131 113 401 -37 562 -54 59 -129 116
-190 147 -116 59 -334 92 -479 72z"/>
</g>
</svg>
